<svg width="18" height="11" viewBox="0 0 18 11" fill="none" xmlns="http://www.w3.org/2000/svg">
<path d="M9.04286 6.15472L9.04285 6.15469L9.03856 6.1574C9.00266 6.18011 8.94955 6.19696 8.89118 6.19696H8.8875C8.80634 6.19696 8.75158 6.17137 8.73133 6.15532L8.73063 6.15477L1.4374 0.4H16.3328L9.37878 5.89367L9.37839 5.89398L9.071 6.13744L9.07098 6.13745L9.07097 6.13743L9.06882 6.13876L9.04286 6.15472ZM11.0505 6.47486L16.4135 10.6H1.31309L6.68765 6.44425L7.78334 7.30935L7.78445 7.31022C8.09366 7.5526 8.48727 7.67805 8.88994 7.67805C9.29218 7.67805 9.68602 7.55156 9.99544 7.30853L9.99635 7.3078L11.0505 6.47486ZM5.48029 5.49141L0.675024 9.20755V1.69966L5.48029 5.49141ZM17.0568 1.73065V9.21249L12.2585 5.52113L17.0568 1.73065Z" stroke="white" stroke-width="0.8"/>
</svg>
