<svg width="18" height="16" viewBox="0 0 18 16" fill="none" xmlns="http://www.w3.org/2000/svg">
<path d="M14.4346 15.1846L14.445 15.1751L16.8643 12.9392C16.8645 12.939 16.8647 12.9388 16.8649 12.9386C16.954 12.8554 16.9737 12.7917 16.967 12.7163C16.9517 12.6646 16.9077 12.5898 16.7589 12.5031L13.3635 10.6355H13.3436L13.2299 10.572C13.2106 10.5612 13.1417 10.5338 12.9824 10.5338C12.8096 10.5338 12.6716 10.5826 12.5481 10.6809L11.5244 11.651L11.5213 11.654L11.5213 11.6539C11.4157 11.7523 11.2918 11.7996 11.2106 11.8248L11.2103 11.8249C11.1552 11.842 11.0513 11.8728 10.9438 11.8728H10.8976L10.8522 11.8643L10.6251 11.822C10.625 11.822 10.6249 11.822 10.6248 11.8219C10.4058 11.7812 10.1387 11.6752 9.84645 11.5363C9.52872 11.3852 9.15003 11.1576 8.71569 10.8629L8.71562 10.8629C8.26148 10.5547 7.75559 10.1323 7.19952 9.60318C6.63199 9.0859 6.18005 8.61664 5.85341 8.19688C5.54295 7.79792 5.30026 7.44363 5.1359 7.13824C4.95207 6.80758 4.81911 6.48811 4.7571 6.18493L4.74695 6.13535V6.08473C4.74695 5.96963 4.77603 5.86587 4.80351 5.78911L14.4346 15.1846ZM14.4346 15.1846L14.4248 15.1948M14.4346 15.1846L14.4248 15.1948M14.4248 15.1948C14.3684 15.2531 14.2823 15.3157 14.1518 15.3743L14.1516 15.3744M14.4248 15.1948L14.1516 15.3744M14.1516 15.3744C14.0216 15.4328 13.9016 15.468 13.7906 15.4847C13.756 15.4868 13.717 15.4904 13.6856 15.4933L13.6825 15.4936L14.1516 15.3744ZM10.6599 14.881L10.6599 14.881C11.3875 15.1619 11.9793 15.3287 12.4432 15.3948C12.9571 15.468 13.2999 15.5 13.4921 15.5C13.5812 15.5 13.6431 15.4973 13.6823 15.4936L10.6599 14.881ZM10.6599 14.881C9.94965 14.6068 9.13072 14.1899 8.20076 13.6238L8.20075 13.6237M10.6599 14.881L8.20075 13.6237M8.20075 13.6237C7.29182 13.0704 6.31226 12.303 5.26217 11.314L5.2622 11.3139M8.20075 13.6237L5.2622 11.3139M5.2622 11.3139L5.25748 11.3096M5.2622 11.3139L5.25748 11.3096M5.25748 11.3096C4.42299 10.5436 3.73906 9.81772 3.20151 9.13218C2.65463 8.43468 2.2212 7.79789 1.89703 7.22112L1.89703 7.2211M5.25748 11.3096L1.89703 7.2211M1.89703 7.2211C1.56739 6.63463 1.32676 6.11442 1.16926 5.6587C1.00478 5.18279 0.898314 4.78692 0.843753 4.46682C0.785385 4.1244 0.768405 3.88857 0.77717 3.74163C0.785639 3.59968 0.79206 3.48834 0.794802 3.42322C0.811617 3.33283 0.845845 3.23206 0.903964 3.11995C0.963478 3.00515 1.0276 2.92758 1.09065 2.87473L1.10067 2.86634M1.89703 7.2211L1.10067 2.86634M1.10067 2.86634L1.11023 2.85744M1.10067 2.86634L1.11023 2.85744M1.11023 2.85744L3.53098 0.603202C3.61469 0.525248 3.68915 0.5 3.77267 0.5C3.83512 0.5 3.87326 0.514876 3.905 0.53704C3.97109 0.5832 4.02816 0.639263 4.07725 0.70759L6.0131 4.12765L6.01658 4.13381M1.11023 2.85744L6.01658 4.13381M6.01658 4.13381L6.02025 4.13987M6.01658 4.13381L6.02025 4.13987M6.02025 4.13987C6.0596 4.20501 6.07291 4.26977 6.05154 4.36431C6.02467 4.48316 5.9716 4.57417 5.88907 4.65103L4.99722 5.48153L4.99721 5.48154M6.02025 4.13987L4.99721 5.48154M4.99721 5.48154C4.88878 5.58251 4.83361 5.705 4.80351 5.78911L4.99721 5.48154Z" stroke="white"/>
</svg>
